<?xml version="1.0" encoding="UTF-8"?>
<svg width="306px" height="44px" viewBox="0 0 306 44" version="1.1" xmlns="http://www.w3.org/2000/svg" xmlns:xlink="http://www.w3.org/1999/xlink">
    <!-- Generator: Sketch 52.5 (67469) - http://www.bohemiancoding.com/sketch -->
    <title>logo</title>
    <desc>Created with Sketch.</desc>
    <defs>
        <linearGradient x1="50%" y1="0%" x2="50%" y2="100%" id="linearGradient-1">
            <stop stop-color="#000C15" offset="0%"></stop>
            <stop stop-color="#000509" offset="100%"></stop>
        </linearGradient>
    </defs>
    <g id="Login-" stroke="none" stroke-width="1" fill="none" fill-rule="evenodd">
        <g id="login-sign-in-right" transform="translate(-200.000000, -372.000000)" fill-rule="nonzero">
            <g id="explanations" transform="translate(147.000000, 371.000000)">
                <g id="logo" transform="translate(53.000000, 0.000000)">
                    <path d="M0,43.5 L0,1.77 L14.27,1.77 C16.2966391,1.75788528 18.3206256,1.91846603 20.32,2.25 C22.0288043,2.51506166 23.6754176,3.08764941 25.18,3.94 C26.5274541,4.70717545 27.6538509,5.80945976 28.45,7.14 C29.2883683,8.66924641 29.6961841,10.3972792 29.63,12.14 C29.6310948,13.1059909 29.5033007,14.0678099 29.25,15 C29.0007477,15.919712 28.6344183,16.8036077 28.16,17.63 C27.6962259,18.4283434 27.124125,19.1586135 26.46,19.8 C25.8150198,20.4296712 25.0403025,20.9108832 24.19,21.21 L24.19,21.47 C25.227636,21.7109721 26.2224208,22.108886 27.14,22.65 C28.0331352,23.1797757 28.8309075,23.855854 29.5,24.65 C30.2041958,25.4896977 30.746688,26.4526213 31.1,27.49 C31.5071433,28.6974432 31.7033428,29.965975 31.68,31.24 C31.7305997,33.1490943 31.300778,35.0403097 30.43,36.74 C29.6089906,38.2587097 28.4320466,39.55575 27,40.52 C25.4257823,41.5655362 23.6787883,42.3239212 21.84,42.76 C19.7683294,43.2653129 17.6423622,43.5138462 15.51,43.5 L0,43.5 Z M9.41,18.5 L13.82,18.5 C16.13,18.5 17.82,18.05 18.82,17.16 C19.8629828,16.2650492 20.4409865,14.9433719 20.39,13.57 C20.51398,12.2162782 19.903457,10.899838 18.79,10.12 C17.2687054,9.34304546 15.5637961,8.99722208 13.86,9.12 L9.41,9.12 L9.41,18.5 Z M9.41,36.23 L14.72,36.23 C19.88,36.23 22.46,34.3533333 22.46,30.6 C22.5965175,29.03291 21.8583462,27.5181209 20.54,26.66 C18.739736,25.7552892 16.7304738,25.347913 14.72,25.48 L9.41,25.48 L9.41,36.23 Z" id="Shape" fill="url(#linearGradient-1)"></path>
                    <polygon id="Shape" fill="url(#linearGradient-1)" points="35.52 43.5 35.52 1.77 44.93 1.77 44.93 35.56 61.44 35.56 61.44 43.5"></polygon>
                    <path d="M79.55,44.26 C74.13,44.26 69.9933333,42.66 67.14,39.46 C64.2866667,36.26 62.8566667,31.1633333 62.85,24.17 L62.85,1.77 L72.32,1.77 L72.32,25.13 C72.32,29.2233333 72.94,32.08 74.18,33.7 C75.4563143,35.3513777 77.4666259,36.2648154 79.55,36.14 C81.6545505,36.256923 83.6854682,35.3476681 85,33.7 C86.28,32.08 86.92,29.2233333 86.92,25.13 L86.92,1.77 L96,1.77 L96,24.17 C96,31.17 94.6033333,36.2666667 91.81,39.46 C89.0166667,42.6533333 84.93,44.2533333 79.55,44.26 Z" id="Shape" fill="url(#linearGradient-1)"></path>
                    <path d="M156.07,44.26 C153.282406,44.2496149 150.519054,43.7416458 147.91,42.76 C145.210023,41.7628659 142.740265,40.2286221 140.65,38.25 L146,31.78 C147.506504,33.0623355 149.190616,34.1199579 151,34.92 C152.677208,35.6997969 154.500537,36.115584 156.35,36.14 C157.888607,36.249871 159.422348,35.8681867 160.73,35.05 C161.668584,34.3655378 162.207731,33.2610362 162.17,32.1 C162.184924,31.5186158 162.039623,30.94433 161.75,30.44 C161.443259,29.9396067 161.030156,29.5128478 160.54,29.19 C159.930923,28.8003854 159.28839,28.4657328 158.62,28.19 L156.15,27.13 L150.71,24.83 C149.618718,24.3883468 148.579169,23.8283317 147.61,23.16 C146.611098,22.4825385 145.706533,21.6754915 144.92,20.76 C144.108329,19.8116272 143.4687,18.7286589 143.03,17.56 C142.543444,16.2418913 142.306081,14.8448398 142.33,13.44 C142.320023,11.7647125 142.692838,10.1092788 143.42,8.6 C144.148495,7.0642892 145.194926,5.70086095 146.49,4.6 C147.877313,3.45360409 149.463725,2.57226382 151.17,2 C153.0984,1.32718217 155.127627,0.988977617 157.17,1 C159.637885,1.00728029 162.081668,1.48585454 164.37,2.41 C166.706154,3.32977875 168.827135,4.72220389 170.6,6.5 L165.8,12.5 C164.549414,11.4897154 163.170816,10.6491068 161.7,10 C160.25919,9.41334216 158.715551,9.12093478 157.16,9.14 C155.798431,9.07308535 154.44871,9.42185059 153.29,10.14 C152.357,10.7511977 151.810984,11.8053123 151.85,12.92 C151.832481,13.5036796 152.000539,14.0778756 152.33,14.56 C152.693896,15.046485 153.14903,15.4574647 153.67,15.77 C154.306924,16.1597683 154.976031,16.4943219 155.67,16.77 L158.16,17.77 L163.56,20 C165.902143,20.8703904 167.98418,22.3226541 169.61,24.22 C171.158674,26.2564921 171.93788,28.7747428 171.81,31.33 C171.838193,34.8065738 170.330511,38.1183503 167.69,40.38 C166.214943,41.6252624 164.518777,42.5819004 162.69,43.2 C160.559631,43.9270719 158.320878,44.2855429 156.07,44.26 Z" id="Shape" fill="url(#linearGradient-1)"></path>
                    <polygon id="Shape" fill="url(#linearGradient-1)" points="182.57 43.5 182.57 9.7 171.11 9.7 171.11 1.77 203.5 1.77 203.5 9.7 192 9.7 192 43.5"></polygon>
                    <path d="M199,43.5 L212,1.77 L223.33,1.77 L236.33,43.5 L226.33,43.5 L223.77,33.58 L211.11,33.58 L208.55,43.5 L199,43.5 Z M214.11,22.38 L213.11,26.22 L222.01,26.22 L221.01,22.38 C220.41,20.2866667 219.833333,18.0666667 219.28,15.72 C218.726667,13.3733333 218.173333,11.1133333 217.62,8.94 L217.36,8.94 C216.85,11.16 216.36,13.43 215.79,15.75 C215.22,18.07 214.65,20.29 214.06,22.38 L214.11,22.38 Z" id="Shape" fill="url(#linearGradient-1)"></path>
                    <path d="M254.5,44.26 C251.93587,44.2815933 249.390906,43.8167132 247,42.89 C244.673724,41.988803 242.566734,40.6011902 240.82,38.82 C238.973202,36.9095605 237.54603,34.63426 236.63,32.14 C235.551291,29.1778446 235.029193,26.0418695 235.09,22.89 C235.039976,19.7337239 235.582702,16.5960908 236.69,13.64 C237.665472,11.0881497 239.129493,8.75115247 241,6.76 C242.760984,4.90020483 244.898589,3.43763309 247.27,2.47 C249.665782,1.48917992 252.231241,0.989679895 254.82,1 C257.328876,0.95734154 259.811472,1.51626861 262.06,2.63 C264.026091,3.60165884 265.81982,4.88868468 267.37,6.44 L262.37,12.44 C261.352347,11.5067089 260.219889,10.7069313 259,10.06 C257.763286,9.42617713 256.389479,9.10676693 255,9.13 C253.612399,9.1239378 252.242603,9.44241538 251,10.06 C249.726486,10.6891543 248.609358,11.5944724 247.73,12.71 C246.752804,13.9746262 246.017172,15.4086001 245.56,16.94 C244.999827,18.763121 244.729862,20.6629982 244.76,22.57 C244.76,26.8766667 245.676667,30.21 247.51,32.57 C249.233107,34.8893825 251.981971,36.2189962 254.87,36.13 C256.471685,36.1540431 258.052532,35.7648586 259.46,35 C260.778925,34.2694771 261.973744,33.3345479 263,32.23 L268,38.12 C264.682597,42.1324237 259.704426,44.3965694 254.5,44.26 Z" id="Shape" fill="url(#linearGradient-1)"></path>
                    <polygon id="Shape" fill="url(#linearGradient-1)" points="271.14 43.5 271.14 1.77 280.55 1.77 280.55 18.86 280.81 18.86 293.22 1.77 303.59 1.77 291 18.41 305.9 43.5 295.59 43.5 285.42 25.9 280.55 32.3 280.55 43.5"></polygon>
                    <polygon id="Shape" fill="#0975E0" points="101.08 9.77 124.89 13.69 135.04 5.68 111.23 1.77"></polygon>
                    <polygon id="Shape" fill="#504DE4" points="101.83 25.16 125.64 29.08 135.79 21.08 111.98 17.16"></polygon>
                    <polygon id="Shape" fill="#9427EA" points="101.83 40.35 125.64 44.26 135.79 36.26 111.98 32.35"></polygon>
                </g>
            </g>
        </g>
    </g>
</svg>